<mxfile host="65bd71144e">
    <diagram id="DIjpKiL7aqYyCrEikYk1" name="Page-1">
        <mxGraphModel dx="650" dy="465" grid="1" gridSize="10" guides="1" tooltips="1" connect="1" arrows="1" fold="1" page="1" pageScale="1" pageWidth="850" pageHeight="1100" math="0" shadow="0">
            <root>
                <mxCell id="0"/>
                <mxCell id="1" parent="0"/>
                <mxCell id="klbfPIyu_TLF5Cdq-jpE-6" style="edgeStyle=orthogonalEdgeStyle;rounded=0;orthogonalLoop=1;jettySize=auto;html=1;entryX=0;entryY=0.5;entryDx=0;entryDy=0;" parent="1" source="klbfPIyu_TLF5Cdq-jpE-1" target="klbfPIyu_TLF5Cdq-jpE-2" edge="1">
                    <mxGeometry relative="1" as="geometry"/>
                </mxCell>
                <mxCell id="klbfPIyu_TLF5Cdq-jpE-7" value="Dev Committ" style="edgeLabel;html=1;align=center;verticalAlign=middle;resizable=0;points=[];" parent="klbfPIyu_TLF5Cdq-jpE-6" vertex="1" connectable="0">
                    <mxGeometry x="-0.2148" y="2" relative="1" as="geometry">
                        <mxPoint as="offset"/>
                    </mxGeometry>
                </mxCell>
                <mxCell id="klbfPIyu_TLF5Cdq-jpE-1" value="User" style="shape=umlActor;verticalLabelPosition=bottom;verticalAlign=top;html=1;outlineConnect=0;" parent="1" vertex="1">
                    <mxGeometry x="70" y="150" width="30" height="60" as="geometry"/>
                </mxCell>
                <mxCell id="klbfPIyu_TLF5Cdq-jpE-9" style="edgeStyle=orthogonalEdgeStyle;rounded=0;orthogonalLoop=1;jettySize=auto;html=1;entryX=0;entryY=0.5;entryDx=0;entryDy=0;" parent="1" source="klbfPIyu_TLF5Cdq-jpE-2" target="klbfPIyu_TLF5Cdq-jpE-8" edge="1">
                    <mxGeometry relative="1" as="geometry"/>
                </mxCell>
                <mxCell id="klbfPIyu_TLF5Cdq-jpE-10" value="Webhook/POST&amp;nbsp;&amp;nbsp;" style="edgeLabel;html=1;align=center;verticalAlign=middle;resizable=0;points=[];" parent="klbfPIyu_TLF5Cdq-jpE-9" vertex="1" connectable="0">
                    <mxGeometry x="-0.2012" y="-1" relative="1" as="geometry">
                        <mxPoint x="12" y="-1" as="offset"/>
                    </mxGeometry>
                </mxCell>
                <mxCell id="klbfPIyu_TLF5Cdq-jpE-2" value="GitHub Repo" style="shape=image;html=1;verticalAlign=top;verticalLabelPosition=bottom;labelBackgroundColor=#ffffff;imageAspect=0;aspect=fixed;image=https://cdn4.iconfinder.com/data/icons/ionicons/512/icon-social-github-128.png" parent="1" vertex="1">
                    <mxGeometry x="240" y="155" width="50" height="50" as="geometry"/>
                </mxCell>
                <mxCell id="2" style="edgeStyle=none;html=1;exitX=0.5;exitY=1;exitDx=0;exitDy=0;entryX=0.519;entryY=0.037;entryDx=0;entryDy=0;entryPerimeter=0;startArrow=none;" edge="1" parent="1" source="klbfPIyu_TLF5Cdq-jpE-20" target="klbfPIyu_TLF5Cdq-jpE-19">
                    <mxGeometry relative="1" as="geometry"/>
                </mxCell>
                <mxCell id="5" value="" style="edgeStyle=none;html=1;" edge="1" parent="1" source="klbfPIyu_TLF5Cdq-jpE-15" target="klbfPIyu_TLF5Cdq-jpE-20">
                    <mxGeometry relative="1" as="geometry"/>
                </mxCell>
                <mxCell id="klbfPIyu_TLF5Cdq-jpE-15" value="" style="whiteSpace=wrap;html=1;aspect=fixed;" parent="1" vertex="1">
                    <mxGeometry x="440" y="40" width="280" height="280" as="geometry"/>
                </mxCell>
                <mxCell id="klbfPIyu_TLF5Cdq-jpE-12" value="" style="edgeStyle=orthogonalEdgeStyle;rounded=0;orthogonalLoop=1;jettySize=auto;html=1;" parent="1" source="klbfPIyu_TLF5Cdq-jpE-8" target="klbfPIyu_TLF5Cdq-jpE-11" edge="1">
                    <mxGeometry relative="1" as="geometry"/>
                </mxCell>
                <mxCell id="klbfPIyu_TLF5Cdq-jpE-13" value="docker build&amp;nbsp;" style="edgeLabel;html=1;align=center;verticalAlign=middle;resizable=0;points=[];" parent="klbfPIyu_TLF5Cdq-jpE-12" vertex="1" connectable="0">
                    <mxGeometry x="0.2273" y="2" relative="1" as="geometry">
                        <mxPoint x="-17" y="2" as="offset"/>
                    </mxGeometry>
                </mxCell>
                <mxCell id="klbfPIyu_TLF5Cdq-jpE-8" value="Pipeline-manager.py" style="whiteSpace=wrap;html=1;aspect=fixed;" parent="1" vertex="1">
                    <mxGeometry x="440" y="145" width="70" height="70" as="geometry"/>
                </mxCell>
                <mxCell id="klbfPIyu_TLF5Cdq-jpE-11" value="" style="sketch=0;aspect=fixed;html=1;points=[];align=center;image;fontSize=12;image=img/lib/mscae/Docker.svg;" parent="1" vertex="1">
                    <mxGeometry x="660" y="159.5" width="50" height="41" as="geometry"/>
                </mxCell>
                <mxCell id="klbfPIyu_TLF5Cdq-jpE-18" value="CI" style="text;html=1;align=center;verticalAlign=middle;resizable=0;points=[];autosize=1;strokeColor=none;fillColor=none;" parent="1" vertex="1">
                    <mxGeometry x="560" y="20" width="30" height="20" as="geometry"/>
                </mxCell>
                <mxCell id="klbfPIyu_TLF5Cdq-jpE-19" value="" style="whiteSpace=wrap;html=1;aspect=fixed;" parent="1" vertex="1">
                    <mxGeometry x="440" y="360" width="270" height="270" as="geometry"/>
                </mxCell>
                <mxCell id="klbfPIyu_TLF5Cdq-jpE-21" value="Amazon EKS" style="sketch=0;outlineConnect=0;fontColor=#232F3E;gradientColor=none;strokeColor=#ffffff;fillColor=#232F3E;dashed=0;verticalLabelPosition=middle;verticalAlign=bottom;align=center;html=1;whiteSpace=wrap;fontSize=10;fontStyle=1;spacing=3;shape=mxgraph.aws4.productIcon;prIcon=mxgraph.aws4.eks;" parent="1" vertex="1">
                    <mxGeometry x="535" y="445" width="80" height="100" as="geometry"/>
                </mxCell>
                <mxCell id="klbfPIyu_TLF5Cdq-jpE-24" value="" style="outlineConnect=0;dashed=0;verticalLabelPosition=bottom;verticalAlign=top;align=center;html=1;shape=mxgraph.aws3.api_gateway;fillColor=#D9A741;gradientColor=none;" parent="1" vertex="1">
                    <mxGeometry x="448.5" y="80" width="53" height="45" as="geometry"/>
                </mxCell>
                <mxCell id="klbfPIyu_TLF5Cdq-jpE-20" value="CD" style="text;html=1;align=center;verticalAlign=middle;resizable=0;points=[];autosize=1;strokeColor=none;fillColor=none;" parent="1" vertex="1">
                    <mxGeometry x="565" y="350" width="30" height="20" as="geometry"/>
                </mxCell>
                <mxCell id="NSXNUSJAR1nETWa6DPGs-5" value="Actor" style="shape=umlActor;verticalLabelPosition=bottom;verticalAlign=top;html=1;outlineConnect=0;" vertex="1" parent="1">
                    <mxGeometry x="40" y="730" width="30" height="60" as="geometry"/>
                </mxCell>
                <mxCell id="NSXNUSJAR1nETWa6DPGs-6" style="edgeStyle=orthogonalEdgeStyle;rounded=0;orthogonalLoop=1;jettySize=auto;html=1;exitX=1;exitY=1;exitDx=0;exitDy=0;exitPerimeter=0;" edge="1" parent="1" source="NSXNUSJAR1nETWa6DPGs-5" target="NSXNUSJAR1nETWa6DPGs-5">
                    <mxGeometry relative="1" as="geometry">
                        <Array as="points">
                            <mxPoint x="70" y="810"/>
                            <mxPoint x="570" y="810"/>
                            <mxPoint x="570" y="760"/>
                        </Array>
                    </mxGeometry>
                </mxCell>
            </root>
        </mxGraphModel>
    </diagram>
</mxfile>